Coordinates
version=1
nRows=9
nColumns=42
inDegrees=yes

Units are S.I. units (second, meters, Newtons, ...)
If the header above contains a line with 'inDegrees', this indicates whether rotational values are in degrees (yes) or radians (no).

endheader
time	pelvis_tilt	pelvis_list	pelvis_rotation	pelvis_tx	pelvis_ty	pelvis_tz	hip_flexion_r	hip_adduction_r	hip_rotation_r	knee_angle_r	knee_angle_r_beta	ankle_angle_r	subtalar_angle_r	mtp_angle_r	hip_flexion_l	hip_adduction_l	hip_rotation_l	knee_angle_l	knee_angle_l_beta	ankle_angle_l	subtalar_angle_l	mtp_angle_l	lumbar_extension	lumbar_bending	lumbar_rotation	sh_tx_r	sh_ty_r	sh_tz_r	sh_plane_elev_r	sh_elev_r	sh_axial_rot_r	elbow_flex_r	pro_sup_r	sh_tx_l	sh_ty_l	sh_tz_l	sh_plane_elev_l	sh_elev_l	sh_axial_rot_l	elbow_flex_l	pro_sup_l
      0.00000000	     -1.09564428	      0.97569219	     -6.50526769	      0.12699215	      0.92487070	      0.00983986	      3.62311735	     -3.72506830	    -15.67816026	     12.66532882	      0.22105169	     -6.50553835	    -30.51511231	     -4.53854451	      9.71110363	     -8.54798323	    -13.80011930	     10.32144079	      0.18014313	      1.27821877	     -5.49100301	     -4.53854451	     -8.33481624	      1.48428872	      4.15020808	      0.00031906	     -0.01408344	     -0.00505301	     -5.35657210	     19.33409151	     -4.46713384	     32.55951442	     79.14431925	      0.00321464	     -0.01433178	     -0.00529913	      7.34628604	      8.72379983	      1.71060837	     27.10141588	     72.65844044
      0.01694910	     -2.26992335	      1.15303495	     -7.10527741	      0.13242117	      0.92095496	      0.00347143	      5.35321947	     -4.15297718	    -16.24592367	     12.99437721	      0.22679467	     -4.17424754	    -32.12834194	     -4.87786642	     10.80670500	     -8.65516100	    -16.70214504	      9.99895534	      0.17451469	      2.73859888	     -3.27628084	     -4.87786642	     -5.25299922	      1.68120801	      4.53474095	      0.00279679	     -0.01546124	     -0.00555648	    -10.24591971	     17.26679164	     -7.61506282	     32.77148440	     76.88099963	      0.00670263	     -0.01566942	     -0.00592179	      3.36651243	      6.85761566	     -1.46697280	     25.83038121	     72.46904160
      0.03389830	     -3.25018903	      1.08130499	     -6.89937267	      0.13602036	      0.91485296	     -0.00142303	      6.30510972	     -4.37376032	    -17.50068120	     13.20008978	      0.23038503	     -3.33287138	    -32.65751743	     -5.82395254	     12.12929174	     -8.84864599	    -16.89111226	     10.55043587	      0.18413984	      3.28420118	     -2.78048088	     -5.82395254	     -3.24084407	      1.55022202	      5.23580523	      0.00400281	     -0.01555490	     -0.00515541	    -17.48644163	     15.19460190	     -4.33442411	     33.91689687	     73.33243008	      0.00835176	     -0.01596647	     -0.00570850	      0.46824784	      6.59017948	      0.16459754	     24.99598277	     74.86199231
      0.05084750	     -3.05728715	      1.18002900	     -6.52173216	      0.14095222	      0.91825351	     -0.00993163	      5.70124871	     -5.04871523	    -18.11601077	     13.06336803	      0.22799878	     -3.14708290	    -32.66595924	     -5.90299127	     11.91011579	     -8.38439171	    -16.48850107	     10.87697186	      0.18983897	      3.77502884	     -3.09278499	     -5.90299127	     -2.93226359	      1.21904449	      4.61470160	      0.00258136	     -0.01582565	     -0.00508826	    -18.24416706	     13.57359773	     -4.28100693	     32.92294501	     72.59934397	      0.00379432	     -0.01601954	     -0.00546535	      0.58509460	      6.77842364	      0.01962470	     24.73307680	     74.51008952
      0.06779660	     -3.09595192	      1.15132255	     -6.17763300	      0.14220114	      0.91711728	     -0.01715740	      5.78293425	     -5.53781701	    -18.35754439	     13.54813930	      0.23645964	     -2.70139748	    -32.86377734	     -5.97681012	     11.93217836	     -8.01619491	    -16.15239370	     11.15530181	      0.19469675	      4.16436458	     -3.24414195	     -5.97681012	     -2.68355034	      1.21942232	      4.07294039	      0.00209112	     -0.01633675	     -0.00498879	    -18.96797051	     12.17393246	     -3.37925836	     32.47811631	     71.89265318	      0.00074145	     -0.01629749	     -0.00519638	      0.63932596	      6.77851221	     -0.16126954	     24.73907901	     73.96535128
      0.08474580	     -2.97683321	      1.25758677	     -5.57836107	      0.14643090	      0.91640647	     -0.02628089	      5.58598892	     -6.26545647	    -18.62156093	     13.88463462	      0.24233259	     -2.59972644	    -32.88503526	     -6.12710467	     11.95999907	     -7.28038925	    -15.55126901	     11.74923439	      0.20506282	      4.82564659	     -3.81266370	     -6.12710467	     -2.39774559	      1.09201133	      3.59688137	      0.00208891	     -0.01672614	     -0.00491856	    -19.46424782	     11.02727163	     -2.20260823	     31.75436233	     70.86412816	     -0.00018410	     -0.01646984	     -0.00488616	      0.93884998	      6.80882830	     -0.06310097	     24.78176541	     72.88466258
      0.10169490	     -2.77291458	      1.37776191	     -5.11838463	      0.14927246	      0.92181812	     -0.03397865	      5.30848761	     -7.05765860	    -19.08861547	     14.24216186	      0.24857262	     -2.97547256	    -32.96796917	     -6.41812018	     11.67931234	     -6.50418121	    -15.28253592	     11.85139199	      0.20684581	      4.90829657	     -4.19043300	     -6.41812018	     -2.23523531	      0.92410052	      3.03085338	      0.00425691	     -0.01706298	     -0.00484133	    -20.79765495	      9.92481684	      0.21782254	     31.43107847	     70.24944878	     -0.00039565	     -0.01647124	     -0.00462066	      0.75893608	      6.76217327	     -0.30432040	     24.92103842	     71.60428586
      0.11864410	     -2.45252350	      1.50972289	     -4.82914667	      0.15193222	      0.92714832	     -0.03949993	      4.98727327	     -7.75677135	    -19.28188989	     14.58587478	      0.25457154	     -3.55137564	    -32.98247230	     -6.62566753	     11.12353728	     -5.76721603	    -15.05891964	     11.71998501	      0.20455233	      4.91285231	     -4.54072644	     -6.62566753	     -2.34838228	      0.60066145	      3.01169902	      0.00372519	     -0.01733124	     -0.00486800	    -20.10061753	      8.92301697	      1.07227693	     30.56821212	     69.36561302	      0.00074821	     -0.01644026	     -0.00439828	      1.08071993	      6.89032481	     -0.07014084	     25.14138617	     70.21818518
      0.13559320	     -2.07747974	      1.65491235	     -4.41653334	      0.15269415	      0.92969203	     -0.04639945	      4.64629524	     -8.52960469	    -19.37943876	     15.09032535	      0.26337586	     -4.00204055	    -32.92861858	     -6.63277222	     10.60192836	     -5.03472837	    -14.97316787	     11.61572197	      0.20273259	      5.00255251	     -4.79308318	     -6.63277222	     -2.57908639	      0.35960143	      2.62262597	      0.00467926	     -0.01746856	     -0.00491844	    -19.19042397	      8.06744944	      1.78412032	     29.94433180	     69.61037446	      0.00089900	     -0.01626041	     -0.00426015	      1.33927960	      7.00260085	     -0.44607388	     25.47684474	     69.76109557
